<svg width="65" height="80" viewBox="0 0 65 80" fill="none" xmlns="http://www.w3.org/2000/svg">
<g clip-path="url(#clip0_3806_8389)">
<path d="M31.1 11.7998C28.8 9.49984 25.4 9.39984 23.4 11.2998L11.9 22.7998C9.90003 24.7998 10.1 28.1998 12.4 30.4998L34.1 52.1998C35.2 53.2998 36.5 53.8998 37.9 53.9998C38.1 53.9998 38.3 53.9998 38.4 53.9998C39.8 53.9998 40.9 53.4998 41.8 52.5998L53.3 41.0998C55.3 39.0998 55.1 35.6998 52.8 33.3998L31.1 11.7998ZM50.7 38.5998L39.1 50.0998C38.7 50.4998 38.3 50.4998 38.1 50.3998C37.6 50.2998 37 49.9998 36.6 49.5998L14.9 27.9998C14.1 27.1998 13.9 25.9998 14.4 25.3998L25.9 13.8998C26.2 13.5998 26.5 13.4998 26.8 13.4998C26.9 13.4998 26.9 13.4998 27 13.4998C27.5 13.5998 28.1 13.8998 28.5 14.2998L50.3 35.9998C51.1 36.7998 51.3 37.9998 50.7 38.5998Z" fill="#F7F8FA"/>
<path d="M9.99991 39.7998C11.0999 45.9998 15.7999 51.0998 21.6999 52.9998C20.9999 53.4998 20.5999 54.5998 21.1999 55.3998C21.6999 56.1998 22.7999 56.5998 23.5999 55.9998C24.7999 55.2998 25.9999 54.4998 26.9999 53.6998C27.7999 53.1998 28.1999 52.0998 27.5999 51.2998C26.8999 50.0998 26.0999 48.8998 25.2999 47.8998C24.7999 47.0998 23.6999 46.6998 22.8999 47.2998C22.1999 47.7998 21.7999 48.6998 22.0999 49.4998C21.9999 49.4998 21.8999 49.3998 21.8999 49.3998C20.8999 48.9998 19.8999 48.4998 18.9999 47.8998C18.2999 47.3998 17.5999 46.8998 16.8999 46.1998C16.1999 45.4998 15.7999 44.8998 15.2999 44.0998C14.8999 43.4998 14.5999 42.7998 14.2999 42.0998C13.8999 41.0998 13.5999 40.0998 13.3999 39.0998C13.1999 38.0998 11.9999 37.5998 11.0999 37.7998C10.2999 37.8998 9.79991 38.8998 9.99991 39.7998Z" fill="#F7F8FA"/>
<path d="M40.3 16.1001C40.8 16.9001 41.9 17.3001 42.7 16.7001C43.4 16.2001 43.8 15.3001 43.4 14.4001C43.6 14.4001 43.8 14.5001 43.9 14.5001C45.3 14.9001 46.5 15.5001 47.6 16.3001C48.3 16.8001 49 17.3001 49.7 18.0001C50.4 18.7001 50.8 19.3001 51.3 20.1001C52.2 21.6001 52.9 23.4001 53.2 25.1001C53.4 26.1001 54.6 26.6001 55.5 26.4001C56.5 26.1001 56.9 25.1001 56.8 24.1001C55.7 17.7001 50.5 12.3001 44.2 10.8001C44.9 10.3001 45.2 9.30012 44.7 8.40012C44.2 7.60012 43.1 7.20012 42.3 7.80012C41.1 8.50012 39.9 9.20012 38.8 10.0001C38 10.5001 37.6 11.6001 38.2 12.4001C38.8 13.8001 39.5 14.9001 40.3 16.1001Z" fill="#F7F8FA"/>
</g>
<defs>
<clipPath id="clip0_3806_8389">
<rect width="64" height="80" fill="white" transform="translate(0.5)"/>
</clipPath>
</defs>
</svg>
